PathFileType	4	(X/Y/Z)	/Users/itak/Documents/Research/Walk-IL/dataset/trc/00065_00006.trc
DataRate	CameraRate	NumFrames	NumMarkers	Units	OrigDataRate	OrigDataStartFrame	OrigNumFrames
100.000000	100.000000	4	53	mm	100.000000	0	741
Frame#	Time	RPSI			LPSI			L3			STRN			T10			C7			CLAV			RBAK			LBAK			LSHO			LUPA			LAEL			LAOL			LWTS			LWPS			LFRA			LIFD			LHPS			LHTS			RSHO			RUPA			RAEL			RAOL			RWTS			RWPS			RFRA			RIFD			RHTS			RHPS			RBHD			LFHD			RFHD			LBHD			LHIP			RHIP			RASI			LASI			LKNE			LTHI			LANK			LTIP			LTOE			LMT1			LMT5			LHEE			RKNE			RTHI			RANK			RTIP			RTOE			RMT1			RMT5			RHEE			
		X1	Y1	Z1	X2	Y2	Z2	X3	Y3	Z3	X4	Y4	Z4	X5	Y5	Z5	X6	Y6	Z6	X7	Y7	Z7	X8	Y8	Z8	X9	Y9	Z9	X10	Y10	Z10	X11	Y11	Z11	X12	Y12	Z12	X13	Y13	Z13	X14	Y14	Z14	X15	Y15	Z15	X16	Y16	Z16	X17	Y17	Z17	X18	Y18	Z18	X19	Y19	Z19	X20	Y20	Z20	X21	Y21	Z21	X22	Y22	Z22	X23	Y23	Z23	X24	Y24	Z24	X25	Y25	Z25	X26	Y26	Z26	X27	Y27	Z27	X28	Y28	Z28	X29	Y29	Z29	X30	Y30	Z30	X31	Y31	Z31	X32	Y32	Z32	X33	Y33	Z33	X34	Y34	Z34	X35	Y35	Z35	X36	Y36	Z36	X37	Y37	Z37	X38	Y38	Z38	X39	Y39	Z39	X40	Y40	Z40	X41	Y41	Z41	X42	Y42	Z42	X43	Y43	Z43	X44	Y44	Z44	X45	Y45	Z45	X46	Y46	Z46	X47	Y47	Z47	X48	Y48	Z48	X49	Y49	Z49	X50	Y50	Z50	X51	Y51	Z51	X52	Y52	Z52	X53	Y53	Z53	

1	0	-102.4899368286133	1039.69482421875	1324.355224609375	-118.0758209228516	1037.37158203125	1149.0693359375	-105.3278274536133	1085.050170898438	1228.29833984375	139.8927764892578	1290.354248046875	1233.319580078125	-125.7801971435547	1218.371704101562	1221.04443359375	-74.68634033203125	1486.774047851562	1218.354125976562	107.5607147216797	1404.850708007812	1229.916870117188	-136.0138092041016	1346.651611328125	1290.803466796875	-90.11880493164062	1448.330078125	1116.015502929688	17.41817283630371	1454.478271484375	1048.701538085938	11.5058422088623	1325.002685546875	973.2755126953125	46.01205825805664	1109.815063476562	964.0635375976562	-24.88345909118652	1094.391723632812	1042.820922851562	139.0061340332031	875.4085083007812	1044.399780273438	89.10928344726562	861.3726196289062	977.8198852539062	72.36125183105469	1001.743286132812	962.31640625	156.2327575683594	691.2276000976562	1070.79736328125	123.3115997314453	781.0339965820312	989.3827514648438	163.8763580322266	793.6671752929688	1046.814453125	-17.9996509552002	1453.3681640625	1397.633056640625	-31.10894966125488	1383.751586914062	1460.64208984375	-51.61689376831055	1117.42138671875	1485.463134765625	-32.60612487792969	1098.4208984375	1391.712646484375	96.34376525878906	868.5331420898438	1451.184448242188	23.96392822265625	852.06884765625	1498.61572265625	-37.32197570800781	1037.6943359375	1491.96337890625	96.61005401611328	679.8901977539062	1427.858642578125	118.442024230957	764.0241088867188	1451.387329101562	59.5475959777832	762.3941040039062	1500.94287109375	-24.14821434020996	1675.328002929688	1150.841552734375	118.3588256835938	1698.992309570312	1311.520874023438	147.5651245117188	1704.476318359375	1188.447998046875	-47.677734375	1662.009033203125	1286.373046875	-20.55360221862793	966.5562133789062	1059.783325195312	-39.29410171508789	967.3078002929688	1401.599365234375	86.34420776367188	979.8435668945312	1379.373413085938	96.24664306640625	973.011474609375	1109.744262695312	7.438550472259521	499.0216674804688	1115.008666992188	-10.69744777679443	642.1408081054688	1075.329711914062	-100.4930648803711	52.7802619934082	1109.820678710938	-57.09658813476562	267.7196655273438	1098.078002929688	104.6621704101562	44.92934799194336	1110.984375	56.35395050048828	42.14262390136719	1165.550415039062	1.443388342857361	44.11904525756836	1068.793701171875	-153.1907348632812	49.26685333251953	1185.389404296875	8.447755813598633	517.7905883789062	1371.6171875	36.34996795654297	788.2806396484375	1406.13037109375	-80.94293212890625	43.41838455200195	1357.989501953125	-16.46791839599609	399.6516723632812	1375.469482421875	135.9404449462891	43.33730697631836	1319.986083984375	75.70057678222656	50.15468215942383	1280.430419921875	43.67047500610352	46.69399642944336	1373.281372070312	-127.8370513916016	47.33934020996094	1301.568481445312	
2	0.01	-102.4711837768555	1039.699829101562	1324.371337890625	-118.0612716674805	1037.39111328125	1149.07958984375	-105.3104858398438	1085.074951171875	1228.306762695312	139.9251708984375	1290.348510742188	1233.338012695312	-125.7225952148438	1218.394287109375	1221.04541015625	-74.63363647460938	1486.793701171875	1218.382934570312	107.6015930175781	1404.851196289062	1229.94287109375	-135.9533538818359	1346.67041015625	1290.81591796875	-90.04909515380859	1448.3564453125	1116.037231445312	17.51068496704102	1454.490234375	1048.725219726562	11.58511257171631	1325.044921875	973.2645263671875	46.06159591674805	1109.879150390625	963.987060546875	-24.8346996307373	1094.428466796875	1042.755737304688	138.9425354003906	875.3738403320312	1044.176879882812	89.0814208984375	861.401611328125	977.6046142578125	72.36252593994141	1001.7939453125	962.1854248046875	156.0685272216797	691.14501953125	1070.466430664062	123.2464065551758	781.0352172851562	989.1030883789062	163.7566375732422	793.6063842773438	1046.564086914062	-17.96754455566406	1453.379028320312	1397.661865234375	-31.0606746673584	1383.775146484375	1460.678100585938	-51.57968521118164	1117.416015625	1485.498046875	-32.47900009155273	1098.368286132812	1391.652587890625	96.35623931884766	868.5173950195312	1451.270141601562	23.99861717224121	852.068603515625	1498.664306640625	-37.27904891967773	1037.69677734375	1492.009155273438	96.68376922607422	679.9190063476562	1427.965942382812	118.5501327514648	764.1148071289062	1451.5107421875	59.55938720703125	762.3896484375	1500.968017578125	-24.1443042755127	1675.334716796875	1150.880126953125	118.4307022094727	1699.026000976562	1311.538818359375	147.5740661621094	1704.48486328125	1188.436889648438	-47.62656402587891	1662.009155273438	1286.463745117188	-20.51694679260254	966.5660400390625	1059.810180664062	-39.29909896850586	967.3165283203125	1401.630004882812	86.33536529541016	979.8306884765625	1379.386108398438	96.25247955322266	973.0059814453125	1109.762939453125	7.442286491394043	499.0274353027344	1115.022094726562	-10.71045207977295	642.1378784179688	1075.335327148438	-100.4779357910156	52.7755126953125	1109.832763671875	-57.08623504638672	267.7221069335938	1098.083374023438	104.6702728271484	44.92391204833984	1110.99853515625	56.36284255981445	42.13043975830078	1165.56005859375	1.438606858253479	44.12434387207031	1068.80126953125	-153.1905517578125	49.27017593383789	1185.388916015625	8.476344108581543	517.79296875	1371.62158203125	36.38277435302734	788.2689819335938	1406.146606445312	-80.93979644775391	43.42566680908203	1357.980590820312	-16.44874954223633	399.6452026367188	1375.4677734375	135.9522552490234	43.31920623779297	1319.967041015625	75.70849609375	50.15169143676758	1280.419677734375	43.67163467407227	46.68950271606445	1373.284301757812	-127.8311386108398	47.34600067138672	1301.5595703125	
3	0.02	-102.4512634277344	1039.708740234375	1324.393676757812	-118.0454635620117	1037.412109375	1149.097290039062	-105.2884292602539	1085.109008789062	1228.322387695312	139.9645538330078	1290.341552734375	1233.36083984375	-125.651969909668	1218.422973632812	1221.045654296875	-74.56571960449219	1486.817993164062	1218.416625976562	107.6521911621094	1404.852783203125	1229.9765625	-135.8797454833984	1346.6953125	1290.830932617188	-89.96181488037109	1448.387817382812	1116.061645507812	17.62293815612793	1454.507202148438	1048.755004882812	11.68597412109375	1325.096923828125	973.2506103515625	46.12325286865234	1109.957763671875	963.8922729492188	-24.77694892883301	1094.478271484375	1042.664794921875	138.8563232421875	875.3292846679688	1043.899047851562	89.03656768798828	861.439208984375	977.3300170898438	72.36637115478516	1001.857727050781	962.02099609375	155.8691711425781	691.05712890625	1070.0380859375	123.1548538208008	781.0368041992188	988.7493286132812	163.5912628173828	793.5238037109375	1046.252563476562	-17.92929267883301	1453.396362304688	1397.692749023438	-31.0028247833252	1383.802490234375	1460.719360351562	-51.53966522216797	1117.411987304688	1485.541015625	-32.35107803344727	1098.3173828125	1391.6025390625	96.37384796142578	868.5053100585938	1451.37841796875	24.04357528686523	852.0679321289062	1498.724609375	-37.2288932800293	1037.700439453125	1492.065673828125	96.78377532958984	679.9539184570312	1428.096069335938	118.6808166503906	764.2290649414062	1451.661254882812	59.57534408569336	762.3862915039062	1500.998046875	-24.1409912109375	1675.342163085938	1150.933471679688	118.5204010009766	1699.065307617188	1311.55419921875	147.5896301269531	1704.497192382812	1188.425415039062	-47.56383895874023	1662.007934570312	1286.569702148438	-20.47392272949219	966.5750732421875	1059.845703125	-39.30002975463867	967.3284301757812	1401.668212890625	86.32735443115234	979.8206176757812	1379.403564453125	96.26075744628906	973.0018310546875	1109.786987304688	7.449985504150391	499.0314025878906	1115.040649414062	-10.71659374237061	642.1356811523438	1075.346313476562	-100.4644470214844	52.77407455444336	1109.845092773438	-57.07115936279297	267.7251586914062	1098.091918945312	104.6811447143555	44.91617202758789	1111.015380859375	56.37228012084961	42.10652160644531	1165.565673828125	1.43545126914978	44.12874221801758	1068.811767578125	-153.1862640380859	49.27700042724609	1185.390869140625	8.511536598205566	517.7965087890625	1371.630615234375	36.42250442504883	788.2593383789062	1406.16552734375	-80.93523406982422	43.4337272644043	1357.970092773438	-16.43022346496582	399.6400451660156	1375.469360351562	135.9654541015625	43.29769515991211	1319.94189453125	75.718994140625	50.14974594116211	1280.406494140625	43.67365264892578	46.68432998657227	1373.287231445312	-127.8248748779297	47.35348510742188	1301.548217773438	
4	0.03	-102.4320907592773	1039.72216796875	1324.421752929688	-118.0296630859375	1037.432983398438	1149.122924804688	-105.2629852294922	1085.152099609375	1228.346557617188	140.0083160400391	1290.333740234375	1233.38720703125	-125.5721969604492	1218.456176757812	1221.044799804688	-74.48497772216797	1486.845458984375	1218.452880859375	107.7102279663086	1404.855590820312	1230.017456054688	-135.797119140625	1346.725463867188	1290.847045898438	-89.86064147949219	1448.422119140625	1116.086547851562	17.7489070892334	1454.529174804688	1048.789672851562	11.80433750152588	1325.155639648438	973.2344360351562	46.19413757324219	1110.046508789062	963.78369140625	-24.71547508239746	1094.541015625	1042.5478515625	138.7492065429688	875.2762451171875	1043.578369140625	88.97174072265625	861.484375	977.0053100585938	72.37325286865234	1001.931640625	961.8300170898438	155.6444549560547	690.9716186523438	1069.52734375	123.0358428955078	781.0386962890625	988.3359985351562	163.3848876953125	793.4219970703125	1045.892822265625	-17.88721466064453	1453.419311523438	1397.722534179688	-30.93960571289062	1383.831298828125	1460.762573242188	-51.50147247314453	1117.411499023438	1485.589965820312	-32.23633193969727	1098.274536132812	1391.5712890625	96.39654541015625	868.5003662109375	1451.50390625	24.09744071960449	852.0672607421875	1498.794067382812	-37.17543411254883	1037.705322265625	1492.130126953125	96.90651702880859	679.99267578125	1428.238525390625	118.8242263793945	764.3604736328125	1451.829833984375	59.59551620483398	762.38525390625	1501.031005859375	-24.13972663879395	1675.348999023438	1151.001953125	118.6237716674805	1699.107421875	1311.564819335938	147.6122894287109	1704.513061523438	1188.4150390625	-47.49287414550781	1662.005493164062	1286.6826171875	-20.42800521850586	966.582275390625	1059.888916015625	-39.29593658447266	967.3433227539062	1401.713256835938	86.32136535644531	979.8163452148438	1379.426635742188	96.27176666259766	972.9999389648438	1109.81591796875	7.463669300079346	499.0332336425781	1115.064575195312	-10.71187973022461	642.1348876953125	1075.36376953125	-100.4552917480469	52.77799224853516	1109.85595703125	-57.05102157592773	267.7285461425781	1098.104248046875	104.6937637329102	44.90486145019531	1111.033081054688	56.3814811706543	42.07026672363281	1165.567626953125	1.435081481933594	44.13151168823242	1068.825073242188	-153.1784820556641	49.28667449951172	1185.395751953125	8.549619674682617	517.8019409179688	1371.64501953125	36.46489334106445	788.2536010742188	1406.186279296875	-80.92962646484375	43.44208145141602	1357.959350585938	-16.4148998260498	399.6375427246094	1375.475463867188	135.978759765625	43.27380752563477	1319.911743164062	75.7314453125	50.14913940429688	1280.391357421875	43.67618560791016	46.67889022827148	1373.289916992188	-127.8188247680664	47.36144256591797	1301.535522460938	
